<?xml version="1.0" standalone="no"?>
<!DOCTYPE svg PUBLIC "-//W3C//DTD SVG 20010904//EN"
 "http://www.w3.org/TR/2001/REC-SVG-20010904/DTD/svg10.dtd">
<svg version="1.0" xmlns="http://www.w3.org/2000/svg"
 width="107.000000pt" height="107.000000pt" viewBox="0 0 107.000000 107.000000"
 preserveAspectRatio="xMidYMid meet">
<metadata>
Created by potrace 1.11, written by Peter Selinger 2001-2013
</metadata>
<g transform="translate(0.000000,107.000000) scale(0.100000,-0.100000)"
fill="#000000" stroke="none">
<path d="M483 1035 c-57 -13 -83 -28 -128 -72 -25 -25 -99 -56 -127 -54 -21 2
-103 -82 -124 -126 -22 -47 -25 -200 -4 -213 11 -7 10 -19 -5 -68 -15 -52 -16
-71 -7 -132 6 -39 19 -87 30 -108 20 -39 95 -100 125 -101 9 -1 17 -5 17 -10
0 -11 33 -9 41 2 3 5 22 -10 41 -32 19 -23 40 -41 46 -41 7 0 12 -4 12 -9 0
-10 7 -13 98 -40 34 -10 62 -15 62 -12 0 6 75 31 101 35 4 1 21 16 40 34 32
31 32 32 9 32 -37 0 -19 8 32 14 45 5 137 43 168 68 69 56 103 178 77 270 -14
46 -14 62 -2 124 7 40 11 87 8 105 -3 19 -6 39 -7 46 -1 7 -5 16 -9 19 -4 4
-7 15 -7 24 0 37 -128 131 -182 132 -18 1 -30 8 -34 20 -3 10 -9 16 -14 13 -5
-3 -14 3 -19 14 -26 48 -156 84 -238 66z m92 -66 c11 -17 -1 -21 -46 -14 -29
5 -38 10 -28 16 19 12 66 11 74 -2z m180 -145 c56 -76 125 -210 125 -242 0
-18 4 -23 16 -18 12 5 14 1 9 -17 -12 -44 -59 -153 -82 -189 -13 -21 -23 -41
-23 -45 0 -5 -10 -20 -22 -34 -13 -14 -28 -34 -34 -45 -6 -10 -23 -25 -39 -33
-34 -17 -225 -27 -250 -14 -10 6 -32 7 -51 3 -31 -7 -36 -5 -56 24 -12 17 -30
40 -40 50 -9 10 -15 22 -13 26 3 4 -2 13 -10 20 -8 7 -15 19 -15 26 0 8 -4 14
-9 14 -9 0 -54 97 -54 118 0 6 -3 12 -6 12 -4 0 -11 8 -18 19 -9 14 -9 29 1
62 20 65 72 169 106 211 8 10 24 35 35 56 12 20 28 39 35 41 48 13 109 18 222
17 l127 0 46 -62z m111 -14 c15 -1 44 -48 50 -82 6 -37 4 -35 -48 45 -36 55
-52 91 -24 55 7 -10 17 -18 22 -18z m-626 10 c0 -6 -7 -13 -15 -16 -8 -4 -13
-10 -10 -14 3 -5 -1 -14 -8 -22 -7 -7 -23 -38 -36 -68 -30 -71 -33 -74 -25
-20 7 52 33 112 44 105 4 -2 12 7 18 20 12 25 32 34 32 15z m-66 -482 c-4 -6
-3 -8 2 -5 6 3 22 -14 37 -39 l27 -44 -29 14 c-32 17 -61 70 -61 113 l1 28 15
-28 c8 -15 12 -33 8 -39z m750 25 c-4 -16 -11 -29 -16 -31 -4 -2 -8 -10 -8
-18 0 -18 -29 -64 -41 -64 -5 0 -9 7 -9 15 0 8 4 15 8 15 5 0 19 25 32 55 24
58 45 75 34 28z m-318 -255 c-23 -13 -126 -12 -140 2 -7 7 20 10 75 10 67 -1
80 -3 65 -12z"/>
<path d="M415 831 c-36 -5 -43 -12 -82 -76 -120 -199 -122 -236 -16 -404 12
-19 20 -38 17 -43 -3 -4 0 -8 6 -8 6 0 15 -11 20 -24 7 -18 20 -27 56 -34 26
-6 53 -8 61 -6 45 14 45 14 34 28 -6 7 -9 15 -6 18 9 8 -17 23 -62 38 -44 14
-54 26 -29 36 9 3 12 12 9 21 -5 14 -1 15 28 9 103 -22 149 -12 149 31 0 17 4
21 18 16 33 -12 -47 56 -85 72 -85 35 -94 41 -99 62 -4 13 -10 21 -14 18 -11
-7 -20 20 -20 56 0 40 53 119 80 119 5 0 20 5 34 11 24 11 24 13 10 40 -15 31
-26 33 -109 20z"/>
<path d="M593 833 c-7 -2 -13 -17 -13 -33 0 -28 15 -40 51 -40 14 0 19 -7 19
-29 0 -29 -14 -49 -24 -33 -2 4 -28 9 -57 10 -42 2 -57 -2 -76 -20 -13 -12
-23 -29 -23 -38 0 -23 36 -58 65 -66 14 -3 25 -10 25 -16 0 -5 4 -7 9 -4 13 9
70 -23 85 -47 8 -12 17 -45 20 -74 6 -50 5 -54 -28 -89 -23 -24 -40 -35 -51
-30 -9 3 -13 2 -10 -4 3 -6 2 -10 -3 -10 -14 0 -25 -51 -13 -63 15 -15 110
-16 124 -1 7 7 23 31 36 53 14 22 29 37 35 34 6 -3 8 -3 4 2 -4 4 8 37 27 72
29 53 45 100 50 148 1 6 5 18 9 28 5 10 6 21 2 24 -3 4 -6 -1 -6 -10 0 -34
-18 -15 -54 58 -20 41 -37 78 -38 82 0 5 -9 14 -19 21 -11 7 -19 21 -19 31 0
26 -94 58 -127 44z"/>
</g>
</svg>
